<svg width="421" height="72" viewBox="0 0 421 72" fill="none" xmlns="http://www.w3.org/2000/svg">
    <path d="M404 36L421 36" stroke="#D0D0D8"/>
    <path d="M0 36L17 36" stroke="#D0D0D8"/>
    <path d="M39.8137 5.09773C41.9857 2.2033 45.3933 0.5 49.012 0.5H371.988C375.607 0.5 379.014 2.2033 381.186 5.09773L404.375 36L381.186 66.9023C379.014 69.7967 375.607 71.5 371.988 71.5H49.012C45.3933 71.5 41.9857 69.7967 39.8137 66.9023L16.6251 36L39.8137 5.09773Z"
          fill="white" stroke="#D0D0D8"/>
    <path d="M50.8624 43.5H56.7502C60.0811 43.5 61.7147 41.8026 61.7147 39.5369C61.7147 37.3352 60.1522 36.0426 58.6039 35.9645V35.8224C60.0243 35.4886 61.1465 34.4943 61.1465 32.7259C61.1465 30.5597 59.584 28.9545 56.4306 28.9545H50.8624V43.5ZM53.4973 41.2983V37.0369H56.4022C58.0286 37.0369 59.0371 38.0312 59.0371 39.331C59.0371 40.4886 58.2417 41.2983 56.3311 41.2983H53.4973ZM53.4973 35.1406V31.1278H56.1607C57.709 31.1278 58.5115 31.9446 58.5115 33.0668C58.5115 34.3452 57.4746 35.1406 56.1039 35.1406H53.4973Z"
          fill="#FF8B37"/>
</svg>