<svg width="421" height="72" viewBox="0 0 421 72" fill="none" xmlns="http://www.w3.org/2000/svg">
    <path d="M404 36L421 36" stroke="#D0D0D8"/>
    <path d="M0 36L17 36" stroke="#D0D0D8"/>
    <path d="M39.8137 5.09773C41.9857 2.2033 45.3933 0.5 49.012 0.5H371.988C375.607 0.5 379.014 2.2033 381.186 5.09773L404.375 36L381.186 66.9023C379.014 69.7967 375.607 71.5 371.988 71.5H49.012C45.3933 71.5 41.9857 69.7967 39.8137 66.9023L16.6251 36L39.8137 5.09773Z"
          fill="white" stroke="#D0D0D8"/>
    <path d="M55.1175 43.5C59.5494 43.5 62.1772 40.7585 62.1772 36.2131C62.1772 31.6818 59.5494 28.9545 55.217 28.9545H50.1886V43.5H55.1175ZM52.8235 41.2202V31.2344H55.0678C58.0224 31.2344 59.5636 32.8821 59.5636 36.2131C59.5636 39.5582 58.0224 41.2202 54.9897 41.2202H52.8235Z"
          fill="#FF8B37"/>
</svg>