<svg width="421" height="72" viewBox="0 0 421 72" fill="none" xmlns="http://www.w3.org/2000/svg">
    <path d="M404 36L421 36" stroke="#D0D0D8"/>
    <path d="M0 36L17 36" stroke="#D0D0D8"/>
    <path d="M39.8137 5.09773C41.9857 2.2033 45.3933 0.5 49.012 0.5H371.988C375.607 0.5 379.014 2.2033 381.186 5.09773L404.375 36L381.186 66.9023C379.014 69.7967 375.607 71.5 371.988 71.5H49.012C45.3933 71.5 41.9857 69.7967 39.8137 66.9023L16.6251 36L39.8137 5.09773Z"
          fill="white" stroke="#D0D0D8"/>
    <path d="M62.4533 33.8622C62.0059 30.6307 59.5201 28.7557 56.2956 28.7557C52.4959 28.7557 49.6337 31.5256 49.6337 36.2273C49.6337 40.9219 52.4604 43.6989 56.2956 43.6989C59.7544 43.6989 62.0485 41.4616 62.4533 38.6847L59.7971 38.6705C59.4632 40.375 58.0712 41.3338 56.3311 41.3338C53.9732 41.3338 52.2828 39.5653 52.2828 36.2273C52.2828 32.946 53.959 31.1207 56.3382 31.1207C58.1067 31.1207 59.4917 32.1222 59.7971 33.8622H62.4533Z"
          fill="#FF8B37"/>
</svg>