<svg width="405" height="72" viewBox="0 0 405 72" fill="none" xmlns="http://www.w3.org/2000/svg">
    <path d="M388 36L405 36" stroke="#EC6259"/>
    <path d="M0 36L17 36" stroke="#EC6259"/>
    <path d="M38.7172 5.28344C40.8781 2.28016 44.3521 0.5 48.052 0.5H356.948C360.648 0.5 364.122 2.28016 366.283 5.28344L388.384 36L366.283 66.7166C364.122 69.7198 360.648 71.5 356.948 71.5H48.052C44.3521 71.5 40.8781 69.7198 38.7172 66.7166L16.616 36L38.7172 5.28344Z"
          fill="#FDEEED" stroke="#EC6259"/>
    <path d="M50.8624 43.5H56.7502C60.0811 43.5 61.7147 41.8026 61.7147 39.5369C61.7147 37.3352 60.1522 36.0426 58.6039 35.9645V35.8224C60.0243 35.4886 61.1465 34.4943 61.1465 32.7259C61.1465 30.5597 59.584 28.9545 56.4306 28.9545H50.8624V43.5ZM53.4973 41.2983V37.0369H56.4022C58.0286 37.0369 59.0371 38.0312 59.0371 39.331C59.0371 40.4886 58.2417 41.2983 56.3311 41.2983H53.4973ZM53.4973 35.1406V31.1278H56.1607C57.709 31.1278 58.5115 31.9446 58.5115 33.0668C58.5115 34.3452 57.4746 35.1406 56.1039 35.1406H53.4973Z"
          fill="#FF8B37"/></svg>
