<svg width="405" height="72" viewBox="0 0 405 72" fill="none" xmlns="http://www.w3.org/2000/svg">
    <path d="M388 36L405 36" stroke="#EC6259"/>
    <path d="M0 36L17 36" stroke="#EC6259"/>
    <path d="M38.7172 5.28344C40.8781 2.28016 44.3521 0.5 48.052 0.5H356.948C360.648 0.5 364.122 2.28016 366.283 5.28344L388.384 36L366.283 66.7166C364.122 69.7198 360.648 71.5 356.948 71.5H48.052C44.3521 71.5 40.8781 69.7198 38.7172 66.7166L16.616 36L38.7172 5.28344Z"
          fill="#FDEEED" stroke="#EC6259"/>
    <path d="M62.4533 33.8622C62.0059 30.6307 59.5201 28.7557 56.2956 28.7557C52.4959 28.7557 49.6337 31.5256 49.6337 36.2273C49.6337 40.9219 52.4604 43.6989 56.2956 43.6989C59.7544 43.6989 62.0485 41.4616 62.4533 38.6847L59.7971 38.6705C59.4632 40.375 58.0712 41.3338 56.3311 41.3338C53.9732 41.3338 52.2828 39.5653 52.2828 36.2273C52.2828 32.946 53.959 31.1207 56.3382 31.1207C58.1067 31.1207 59.4917 32.1222 59.7971 33.8622H62.4533Z"
          fill="#FF8B37"/></svg>
