<svg width="405" height="72" viewBox="0 0 405 72" fill="none" xmlns="http://www.w3.org/2000/svg">
    <path d="M388 36L405 36" stroke="#EC6259"/>
    <path d="M0 36L17 36" stroke="#EC6259"/>
    <path d="M38.7172 5.28344C40.8781 2.28016 44.3521 0.5 48.052 0.5H356.948C360.648 0.5 364.122 2.28016 366.283 5.28344L388.384 36L366.283 66.7166C364.122 69.7198 360.648 71.5 356.948 71.5H48.052C44.3521 71.5 40.8781 69.7198 38.7172 66.7166L16.616 36L38.7172 5.28344Z"
          fill="#FDEEED" stroke="#EC6259"/>
    <path d="M52.0662 43.5L53.2665 39.9134H58.7353L59.9426 43.5H62.7551L57.6273 28.9545H54.3745L49.2537 43.5H52.0662ZM53.9767 37.7969L55.9441 31.9375H56.0577L58.025 37.7969H53.9767Z"
          fill="#FF8B37"/>
</svg>
