<svg width="320" height="56" viewBox="0 0 320 56" fill="none" xmlns="http://www.w3.org/2000/svg">
    <path d="M303 28L320 28" stroke="#47D867"/>
    <path d="M0 28L17 28" stroke="#47D867"/>
    <path d="M32.8175 5.31576C34.9762 2.29361 38.4615 0.5 42.1754 0.5H277.825C281.539 0.5 285.024 2.29361 287.183 5.31576L303.386 28L287.183 50.6842C285.024 53.7064 281.539 55.5 277.825 55.5H42.1754C38.4615 55.5 34.9762 53.7064 32.8175 50.6842L16.6145 28L32.8175 5.31576Z"
          fill="#E6FAEA" stroke="#47D867"/>
    <path d="M44.4037 33H48.5251C50.8568 33 52.0003 31.8118 52.0003 30.2259C52.0003 28.6847 50.9065 27.7798 49.8227 27.7251V27.6257C50.817 27.392 51.6025 26.696 51.6025 25.4581C51.6025 23.9418 50.5088 22.8182 48.3014 22.8182H44.4037V33ZM46.2481 31.4588V28.4759H48.2815C49.42 28.4759 50.126 29.1719 50.126 30.0817C50.126 30.892 49.5692 31.4588 48.2318 31.4588H46.2481ZM46.2481 27.1484V24.3395H48.1125C49.1963 24.3395 49.7581 24.9112 49.7581 25.6967C49.7581 26.5916 49.0322 27.1484 48.0727 27.1484H46.2481Z"
          fill="#FF8B37"/>
</svg>
