<svg width="320" height="56" viewBox="0 0 320 56" fill="none" xmlns="http://www.w3.org/2000/svg">
    <path d="M303 28L320 28" stroke="#EC6259"/>
    <path d="M0 28L17 28" stroke="#EC6259"/>
    <path d="M32.8175 5.31576C34.9762 2.29361 38.4615 0.5 42.1754 0.5H277.825C281.539 0.5 285.024 2.29361 287.183 5.31576L303.386 28L287.183 50.6842C285.024 53.7064 281.539 55.5 277.825 55.5H42.1754C38.4615 55.5 34.9762 53.7064 32.8175 50.6842L16.6145 28L32.8175 5.31576Z"
          fill="#FDEEED" stroke="#EC6259"/>
    <path d="M47.3823 33C50.4846 33 52.324 31.081 52.324 27.8991C52.324 24.7273 50.4846 22.8182 47.4519 22.8182H43.932V33H47.3823ZM45.7765 31.4041V24.4141H47.3475C49.4157 24.4141 50.4945 25.5675 50.4945 27.8991C50.4945 30.2408 49.4157 31.4041 47.2928 31.4041H45.7765Z"
          fill="#FF8B37"/>
</svg>
