<svg width="320" height="56" viewBox="0 0 320 56" fill="none" xmlns="http://www.w3.org/2000/svg">
    <path d="M303 28L320 28" stroke="#EC6259"/>
    <path d="M0 28L17 28" stroke="#EC6259"/>
    <path d="M32.8175 5.31576C34.9762 2.29361 38.4615 0.5 42.1754 0.5H277.825C281.539 0.5 285.024 2.29361 287.183 5.31576L303.386 28L287.183 50.6842C285.024 53.7064 281.539 55.5 277.825 55.5H42.1754C38.4615 55.5 34.9762 53.7064 32.8175 50.6842L16.6145 28L32.8175 5.31576Z"
          fill="#FDEEED" stroke="#EC6259"/>
    <path d="M52.5173 26.2536C52.2041 23.9915 50.464 22.679 48.2069 22.679C45.5471 22.679 43.5436 24.6179 43.5436 27.9091C43.5436 31.1953 45.5223 33.1392 48.2069 33.1392C50.6281 33.1392 52.2339 31.5732 52.5173 29.6293L50.6579 29.6193C50.4243 30.8125 49.4498 31.4837 48.2318 31.4837C46.5812 31.4837 45.398 30.2457 45.398 27.9091C45.398 25.6122 46.5713 24.3345 48.2368 24.3345C49.4747 24.3345 50.4442 25.0355 50.6579 26.2536H52.5173Z"
          fill="#FF8B37"/>
</svg>
