<svg width="320" height="56" viewBox="0 0 320 56" fill="none" xmlns="http://www.w3.org/2000/svg">
    <path d="M303 28L320 28" stroke="#EC6259"/>
    <path d="M0 28L17 28" stroke="#EC6259"/>
    <path d="M32.8175 5.31576C34.9762 2.29361 38.4615 0.5 42.1754 0.5H277.825C281.539 0.5 285.024 2.29361 287.183 5.31576L303.386 28L287.183 50.6842C285.024 53.7064 281.539 55.5 277.825 55.5H42.1754C38.4615 55.5 34.9762 53.7064 32.8175 50.6842L16.6145 28L32.8175 5.31576Z"
          fill="#FDEEED" stroke="#EC6259"/>
    <path d="M45.2464 33L46.0866 30.4893H49.9147L50.7599 33H52.7286L49.1391 22.8182H46.8621L43.2776 33H45.2464ZM46.5837 29.0078L47.9608 24.9062H48.0404L49.4175 29.0078H46.5837Z"
          fill="#FF8B37"/>
</svg>
